<svg width="32" height="32" viewBox="0 0 32 32" fill="none" xmlns="http://www.w3.org/2000/svg">
<circle cx="16" cy="16" r="16" fill="black" fill-opacity="0.04"/>
<path fill-rule="evenodd" clip-rule="evenodd" d="M16.9919 9.41012C16.9496 9.17688 16.7455 9 16.5 9C16.2239 9 16 9.22386 16 9.5V16H22.5L22.5899 15.9919C22.8231 15.9496 23 15.7455 23 15.5L22.9919 15.4101C22.9496 15.1769 22.7455 15 22.5 15H17.7071L22.3536 10.3536L22.4114 10.2843C22.5464 10.0894 22.5271 9.82001 22.3536 9.64645C22.1583 9.45118 21.8417 9.45118 21.6464 9.64645L17 14.2929V9.5L16.9919 9.41012Z" fill="black" fill-opacity="0.8"/>
<path fill-rule="evenodd" clip-rule="evenodd" d="M15.0081 22.5899C15.0504 22.8231 15.2545 23 15.5 23C15.7761 23 16 22.7761 16 22.5V16H9.5L9.41012 16.0081C9.17688 16.0504 9 16.2545 9 16.5L9.00806 16.5899C9.05039 16.8231 9.25454 17 9.5 17H14.2929L9.64645 21.6464L9.58859 21.7157C9.4536 21.9106 9.47288 22.18 9.64645 22.3536C9.84171 22.5488 10.1583 22.5488 10.3536 22.3536L15 17.7071V22.5L15.0081 22.5899Z" fill="black" fill-opacity="0.8"/>
</svg>
