<svg width="32" height="32" viewBox="0 0 32 32" fill="none" xmlns="http://www.w3.org/2000/svg">
<circle cx="16" cy="16" r="16" fill="black" fill-opacity="0.04"/>
<path d="M19.4964 23.0384L19.1269 23.0615C18.8728 23.0615 18.6303 23.0269 18.3878 22.9576L18.2377 22.9114C18.0991 22.8768 18.0529 22.8537 17.9952 22.8306C17.822 22.7729 17.6488 22.6805 17.4987 22.5765C17.3832 22.4957 17.2793 22.4033 17.1869 22.3109C17.1176 22.2417 17.0599 22.1724 17.0137 22.1031C16.7596 21.7451 16.5979 21.2948 16.5633 20.752C16.5633 20.6943 16.5518 20.6135 16.5518 20.5326C16.5518 20.4287 16.5518 20.3248 16.5518 20.2208C16.5518 20.0938 16.5633 19.9668 16.5864 19.8398C16.6095 19.6781 16.6326 19.528 16.6672 19.3779L16.8866 18.4194C16.9906 17.842 17.106 17.2647 17.1869 16.6757C17.2677 16.0983 17.3254 15.521 17.3832 14.932L17.4756 13.8235C17.4987 13.6041 17.5218 13.3731 17.5449 13.1537C17.5564 13.0151 17.5795 12.8766 17.591 12.738L17.6372 12.4378C17.7181 11.9759 17.822 11.6179 17.9721 11.2945C18.0414 11.156 18.1222 11.0059 18.2146 10.8788C18.307 10.7403 18.4225 10.6017 18.5379 10.4862C18.6765 10.3476 18.8497 10.2091 19.0345 10.0936C19.2308 9.96657 19.4502 9.87419 19.6581 9.79336C19.8313 9.73562 20.016 9.70098 20.2008 9.67788C20.2932 9.66633 20.3971 9.65479 20.501 9.65479C20.6973 9.65479 20.8475 9.66633 20.986 9.68943C21.6904 9.8049 22.3833 10.186 22.926 10.7518C23.0069 10.8442 23.0877 10.9366 23.1685 11.0405C23.2725 11.1675 23.3648 11.2945 23.4457 11.4331C23.5381 11.6063 23.6304 11.7911 23.7113 11.9759C23.7806 12.1491 23.8383 12.3338 23.8845 12.5186C23.9191 12.6572 23.9422 12.7957 23.9653 12.9343C23.9884 13.1537 24 13.3616 24 13.581C24 13.8466 23.9653 14.1353 23.9076 14.4124C23.8498 14.6895 23.769 14.9551 23.6766 15.2092C23.5034 15.7173 23.2725 16.1907 23.0761 16.6064L22.6835 17.3801C22.5103 17.7496 22.3256 18.1307 22.187 18.5233C22.1408 18.6619 22.0946 18.812 22.0484 18.9506L21.9445 19.4125C21.9098 19.5973 21.8637 19.782 21.829 19.9668C21.7828 20.1515 21.7482 20.3248 21.702 20.498C21.6673 20.6365 21.6327 20.7751 21.5865 20.9137C21.5519 21.0176 21.5172 21.1215 21.4826 21.2255C21.4479 21.3063 21.4248 21.3871 21.3902 21.468L21.3209 21.6412C21.1015 22.1146 20.8359 22.4495 20.501 22.6805C20.4202 22.7382 20.3394 22.7844 20.2585 22.8306C20.1315 22.8999 19.9929 22.9461 19.8428 22.9807C19.7735 23.0038 19.7043 23.0154 19.635 23.0269L19.4964 23.0384ZM18.6188 22.0684C18.792 22.1146 18.9652 22.1377 19.1384 22.1377L19.6003 22.08C19.6927 22.0569 19.762 22.0338 19.8313 21.9992C19.8775 21.9761 19.9237 21.953 19.9698 21.9183C20.1662 21.7798 20.3278 21.5604 20.4779 21.237L20.6165 20.8906C20.6512 20.7982 20.6742 20.7058 20.7089 20.625C20.732 20.5095 20.7666 20.394 20.8013 20.267C20.8475 20.1054 20.8821 19.9321 20.9167 19.7705C20.9629 19.5857 20.9976 19.4125 21.0322 19.2393L21.09 18.9391C21.1246 18.8582 21.1362 18.7774 21.1592 18.7081C21.2054 18.5464 21.2516 18.3732 21.3209 18.2116C21.471 17.7843 21.6558 17.3801 21.8637 16.976L22.2563 16.2023C22.441 15.8212 22.6604 15.3708 22.8221 14.9089C22.9029 14.6895 22.9607 14.4701 23.0069 14.2392C23.0531 14.0198 23.0761 13.7888 23.0877 13.5694C23.0877 13.3962 23.0877 13.223 23.0646 13.0613C23.03 12.9458 23.0184 12.8304 22.9838 12.7264C22.9491 12.5879 22.9145 12.4609 22.8567 12.3223C22.799 12.1837 22.7297 12.0451 22.6489 11.9066C22.5796 11.8026 22.5103 11.6987 22.441 11.6063C22.3833 11.537 22.3256 11.4678 22.2563 11.3985C21.8521 10.9712 21.344 10.6825 20.8359 10.6017C20.732 10.5901 20.6396 10.5786 20.5357 10.5786C20.4433 10.5786 20.374 10.5786 20.3047 10.5901C20.1893 10.6017 20.0622 10.6363 19.9468 10.671C19.8082 10.7172 19.6696 10.7864 19.531 10.8673C19.3925 10.9481 19.2885 11.0405 19.1846 11.1329C19.1153 11.2137 19.046 11.2945 18.9768 11.3869C18.919 11.4793 18.8613 11.5832 18.8151 11.6872C18.6996 11.9297 18.6188 12.2299 18.5495 12.611L18.4571 13.2692C18.434 13.477 18.4109 13.6964 18.3878 13.9158L18.2954 15.0129C18.2377 15.6133 18.18 16.2138 18.0991 16.8027C18.0068 17.4032 17.9028 17.9921 17.7874 18.5926L17.5679 19.5742C17.5449 19.6896 17.5218 19.8167 17.5102 19.9437C17.4987 20.0476 17.4871 20.1515 17.4756 20.267C17.4756 20.3594 17.4756 20.4402 17.4756 20.5211L17.4871 20.6943C17.5102 21.0638 17.6141 21.3525 17.7643 21.5719C17.7989 21.6181 17.822 21.6527 17.8566 21.6874C17.9028 21.7336 17.9606 21.7798 18.0299 21.826C18.1222 21.8837 18.2262 21.9414 18.3301 21.9761L18.6188 22.0684Z" fill="black"/>
<path d="M12.5036 21.8837L12.8731 21.9068C13.1272 21.9068 13.3697 21.8721 13.6122 21.8028L13.7623 21.7566C13.9009 21.722 13.9471 21.6989 14.0048 21.6758C14.178 21.6181 14.3512 21.5257 14.5013 21.4218C14.6168 21.3409 14.7207 21.2485 14.8131 21.1562C14.8824 21.0869 14.9401 21.0176 14.9863 20.9483C15.2404 20.5903 15.4021 20.14 15.4367 19.5972C15.4367 19.5395 15.4482 19.4587 15.4482 19.3778C15.4482 19.2739 15.4482 19.17 15.4482 19.066C15.4482 18.939 15.4367 18.812 15.4136 18.685C15.3905 18.5233 15.3674 18.3732 15.3328 18.2231L15.1134 17.2646C15.0094 16.6872 14.894 16.1099 14.8131 15.5209C14.7323 14.9436 14.6746 14.3662 14.6168 13.7773L14.5244 12.6687C14.5013 12.4493 14.4782 12.2183 14.4551 11.9989C14.4436 11.8604 14.4205 11.7218 14.409 11.5832L14.3628 11.283C14.2819 10.8211 14.178 10.4631 14.0279 10.1398C13.9586 10.0012 13.8778 9.85107 13.7854 9.72405C13.693 9.58547 13.5775 9.4469 13.4621 9.33143C13.3235 9.19286 13.1503 9.05428 12.9655 8.93881C12.7692 8.81179 12.5498 8.7194 12.3419 8.63857C12.1687 8.58083 11.984 8.54619 11.7992 8.5231C11.7068 8.51155 11.6029 8.5 11.499 8.5C11.3027 8.5 11.1525 8.51155 11.014 8.53464C10.3096 8.65012 9.61671 9.03119 9.07397 9.59702C8.99314 9.6894 8.9123 9.78178 8.83147 9.88571C8.72754 10.0127 8.63516 10.1398 8.55433 10.2783C8.46195 10.4515 8.36957 10.6363 8.28873 10.8211C8.21945 10.9943 8.16171 11.179 8.11552 11.3638C8.08088 11.5024 8.05778 11.6409 8.03469 11.7795C8.01159 11.9989 8.00004 12.2068 8.00004 12.4262C8.00004 12.6918 8.03469 12.9805 8.09242 13.2576C8.15016 13.5348 8.231 13.8003 8.32338 14.0544C8.49659 14.5625 8.72754 15.0359 8.92385 15.4517L9.31647 16.2253C9.48968 16.5949 9.67444 16.9759 9.81302 17.3686C9.85921 17.5071 9.9054 17.6572 9.95159 17.7958L10.0555 18.2577C10.0902 18.4425 10.1363 18.6272 10.171 18.812C10.2172 18.9968 10.2518 19.17 10.298 19.3432C10.3327 19.4818 10.3673 19.6203 10.4135 19.7589C10.4481 19.8628 10.4828 19.9668 10.5174 20.0707C10.5521 20.1515 10.5752 20.2324 10.6098 20.3132L10.6791 20.4864C10.8985 20.9599 11.1641 21.2947 11.499 21.5257C11.5798 21.5834 11.6606 21.6296 11.7415 21.6758C11.8685 21.7451 12.0071 21.7913 12.1572 21.8259C12.2265 21.849 12.2957 21.8606 12.365 21.8721L12.5036 21.8837ZM13.3812 20.9137C13.208 20.9599 13.0348 20.983 12.8616 20.983L12.3997 20.9252C12.3073 20.9021 12.238 20.879 12.1687 20.8444C12.1225 20.8213 12.0763 20.7982 12.0302 20.7635C11.8338 20.625 11.6722 20.4056 11.5221 20.0822L11.3835 19.7358C11.3488 19.6434 11.3258 19.551 11.2911 19.4702C11.268 19.3547 11.2334 19.2393 11.1987 19.1122C11.1525 18.9506 11.1179 18.7774 11.0833 18.6157C11.0371 18.4309 11.0024 18.2577 10.9678 18.0845L10.91 17.7843C10.8754 17.7034 10.8638 17.6226 10.8408 17.5533C10.7946 17.3916 10.7484 17.2184 10.6791 17.0568C10.529 16.6295 10.3442 16.2253 10.1363 15.8212L9.74373 15.0475C9.55897 14.6664 9.33956 14.2161 9.1779 13.7542C9.09706 13.5348 9.03933 13.3153 8.99314 13.0844C8.94695 12.865 8.92385 12.634 8.9123 12.4146C8.9123 12.2414 8.9123 12.0682 8.9354 11.9065C8.97004 11.7911 8.98159 11.6756 9.01623 11.5717C9.05087 11.4331 9.08552 11.3061 9.14326 11.1675C9.20099 11.0289 9.27028 10.8904 9.35111 10.7518C9.4204 10.6479 9.48968 10.5439 9.55897 10.4515C9.61671 10.3823 9.67444 10.313 9.74373 10.2437C10.1479 9.81643 10.656 9.52774 11.1641 9.4469C11.268 9.43536 11.3604 9.42381 11.4643 9.42381C11.5567 9.42381 11.626 9.42381 11.6953 9.43536C11.8107 9.4469 11.9378 9.48155 12.0532 9.51619C12.1918 9.56238 12.3304 9.63166 12.469 9.7125C12.6075 9.79333 12.7115 9.88571 12.8154 9.97809C12.8847 10.0589 12.954 10.1398 13.0232 10.2321C13.081 10.3245 13.1387 10.4284 13.1849 10.5324C13.3004 10.7749 13.3812 11.0751 13.4505 11.4562L13.5429 12.1144C13.566 12.3223 13.5891 12.5417 13.6122 12.7611L13.7046 13.8581C13.7623 14.4586 13.82 15.059 13.9009 15.648C13.9932 16.2484 14.0972 16.8374 14.2126 17.4378L14.4321 18.4194C14.4551 18.5349 14.4782 18.6619 14.4898 18.7889C14.5013 18.8928 14.5129 18.9968 14.5244 19.1122C14.5244 19.2046 14.5244 19.2855 14.5244 19.3663L14.5129 19.5395C14.4898 19.909 14.3859 20.1977 14.2357 20.4171C14.2011 20.4633 14.178 20.498 14.1434 20.5326C14.0972 20.5788 14.0394 20.625 13.9701 20.6712C13.8778 20.7289 13.7738 20.7866 13.6699 20.8213L13.3812 20.9137Z" fill="black"/>
</svg>
